<?xml version="1.0" encoding="utf-8"?>
<!-- Generator: Adobe Illustrator 24.0.0, SVG Export Plug-In . SVG Version: 6.00 Build 0)  -->
<svg version="1.1" id="bookingxLoader" xmlns="http://www.w3.org/2000/svg" xmlns:xlink="http://www.w3.org/1999/xlink" x="0px"
	 y="0px" viewBox="0 0 330 330" enable-background="new 0 0 330 330" xml:space="preserve">
	<style>
		#pLoader{
			stroke-dasharray: 564;
			stroke-dashoffset: 564;
			animation: anim1 2s infinite ease-in-out;
		}
		@keyframes anim1 {
			0%{stroke-dashoffset: 1692}
			40%,60%{stroke-dashoffset: 1128}
			100%{stroke-dashoffset: 564}
		}
		#gLoader{
			transform-origin: 50% 50%;
			animation: anim2 2s infinite ease-in-out;
		}
		@keyframes anim2 {
			0%{transform: scale(1)}
			50%{transform: scale(1.3)}
			100%{transform: scale(1)}
		}
	</style>
<g id="gLoader">
	<defs>
		<polygon id="SVGID_1_" points="250.3,76.42 250.34,76.36 207.9,76.36 164.45,136.32 147.93,115.47 101.13,115.47 141.62,167.71 
			79.66,253.64 93.27,253.64 155.4,167.48 123.65,126.51 142.6,126.51 164.78,154.5 213.5,87.4 228.76,87.4 172.76,164.36 
			202.61,203.47 183.97,203.55 163.4,177.17 156.69,186.48 178.63,214.59 225.13,214.51 186.56,164.16 250.33,76.42 		"/>
	</defs>
	<clipPath id="SVGID_2_">
		<use xlink:href="#SVGID_1_"  overflow="visible"/>
	</clipPath>
	<path id="pLoader" clip-path="url(#SVGID_2_)" fill="none" stroke="#B3B2B2" stroke-width="18" stroke-miterlimit="10" d="
		M84.37,255.85c0-0.89,64.74-88.96,64.74-88.96l-35.44-45.56l30.78-1l21.22,25.22l44.78-63.78l27.7,0.59l-57.93,81.33l32.89,45.19
		l-29.78,0.44l-26.37-30.52"/>
</g>
</svg>
